<mxfile host="app.diagrams.net" modified="2023-05-18T19:21:36.259Z" agent="Mozilla/5.0 (Windows NT 10.0; Win64; x64) AppleWebKit/537.36 (KHTML, like Gecko) Chrome/113.0.0.0 Safari/537.36" etag="vBlV8-JQ2fpV3RMbYrnb" version="21.3.2" type="device">
  <diagram name="Page-1" id="k457JlHhpwJIkpJNzKYx">
    <mxGraphModel dx="2074" dy="1156" grid="1" gridSize="10" guides="1" tooltips="1" connect="1" arrows="1" fold="1" page="1" pageScale="1" pageWidth="850" pageHeight="1100" math="0" shadow="0">
      <root>
        <mxCell id="0" />
        <mxCell id="1" parent="0" />
        <mxCell id="3ziM_ePsdoDH7cdMsqEC-76" style="edgeStyle=orthogonalEdgeStyle;rounded=0;orthogonalLoop=1;jettySize=auto;html=1;exitX=0.5;exitY=1;exitDx=0;exitDy=0;entryX=0.25;entryY=0;entryDx=0;entryDy=0;" edge="1" parent="1" source="3ziM_ePsdoDH7cdMsqEC-1" target="3ziM_ePsdoDH7cdMsqEC-5">
          <mxGeometry relative="1" as="geometry" />
        </mxCell>
        <mxCell id="3ziM_ePsdoDH7cdMsqEC-1" value="Login" style="swimlane;whiteSpace=wrap;html=1;" vertex="1" parent="1">
          <mxGeometry width="200" height="200" as="geometry" />
        </mxCell>
        <mxCell id="3ziM_ePsdoDH7cdMsqEC-37" value="Username Or Email" style="rounded=1;arcSize=9;fillColor=#F7F8F9;align=left;spacingLeft=5;strokeColor=#DEE1E6;html=1;strokeWidth=2;fontSize=12" vertex="1" parent="3ziM_ePsdoDH7cdMsqEC-1">
          <mxGeometry x="35" y="60" width="130" height="30" as="geometry" />
        </mxCell>
        <mxCell id="3ziM_ePsdoDH7cdMsqEC-39" value="Password" style="rounded=1;arcSize=9;fillColor=#F7F8F9;align=left;spacingLeft=5;strokeColor=#DEE1E6;html=1;strokeWidth=2;fontSize=12" vertex="1" parent="3ziM_ePsdoDH7cdMsqEC-1">
          <mxGeometry x="35" y="110" width="130" height="30" as="geometry" />
        </mxCell>
        <mxCell id="3ziM_ePsdoDH7cdMsqEC-128" value="Login" style="rounded=1;fillColor=#0057D8;align=center;strokeColor=none;html=1;whiteSpace=wrap;fontColor=#ffffff;fontSize=12;sketch=0;" vertex="1" parent="3ziM_ePsdoDH7cdMsqEC-1">
          <mxGeometry x="57" y="160" width="86" height="33" as="geometry" />
        </mxCell>
        <mxCell id="3ziM_ePsdoDH7cdMsqEC-16" style="edgeStyle=orthogonalEdgeStyle;rounded=0;orthogonalLoop=1;jettySize=auto;html=1;exitX=1;exitY=0.5;exitDx=0;exitDy=0;entryX=0;entryY=0.5;entryDx=0;entryDy=0;" edge="1" parent="1" source="3ziM_ePsdoDH7cdMsqEC-2" target="3ziM_ePsdoDH7cdMsqEC-3">
          <mxGeometry relative="1" as="geometry" />
        </mxCell>
        <mxCell id="3ziM_ePsdoDH7cdMsqEC-2" value="Sign Up" style="swimlane;whiteSpace=wrap;html=1;" vertex="1" parent="1">
          <mxGeometry x="325" width="200" height="200" as="geometry" />
        </mxCell>
        <mxCell id="3ziM_ePsdoDH7cdMsqEC-42" value="Username" style="rounded=1;arcSize=9;fillColor=#F7F8F9;align=left;spacingLeft=5;strokeColor=#DEE1E6;html=1;strokeWidth=2;fontSize=12" vertex="1" parent="3ziM_ePsdoDH7cdMsqEC-2">
          <mxGeometry x="35" y="40" width="125" height="20" as="geometry" />
        </mxCell>
        <mxCell id="3ziM_ePsdoDH7cdMsqEC-44" value="Email" style="rounded=1;arcSize=9;fillColor=#F7F8F9;align=left;spacingLeft=5;strokeColor=#DEE1E6;html=1;strokeWidth=2;fontSize=12" vertex="1" parent="3ziM_ePsdoDH7cdMsqEC-2">
          <mxGeometry x="35" y="70" width="125" height="20" as="geometry" />
        </mxCell>
        <mxCell id="3ziM_ePsdoDH7cdMsqEC-45" value="Password" style="rounded=1;arcSize=9;fillColor=#F7F8F9;align=left;spacingLeft=5;strokeColor=#DEE1E6;html=1;strokeWidth=2;fontSize=12" vertex="1" parent="3ziM_ePsdoDH7cdMsqEC-2">
          <mxGeometry x="35" y="100" width="125" height="20" as="geometry" />
        </mxCell>
        <mxCell id="3ziM_ePsdoDH7cdMsqEC-46" value="Confrim Password" style="rounded=1;arcSize=9;fillColor=#F7F8F9;align=left;spacingLeft=5;strokeColor=#DEE1E6;html=1;strokeWidth=2;fontSize=12" vertex="1" parent="3ziM_ePsdoDH7cdMsqEC-2">
          <mxGeometry x="35" y="130" width="125" height="20" as="geometry" />
        </mxCell>
        <mxCell id="3ziM_ePsdoDH7cdMsqEC-53" value="Create Account" style="rounded=1;fillColor=#0057D8;align=center;strokeColor=none;html=1;whiteSpace=wrap;fontColor=#ffffff;fontSize=12;sketch=0;" vertex="1" parent="3ziM_ePsdoDH7cdMsqEC-2">
          <mxGeometry x="57" y="160" width="86" height="33" as="geometry" />
        </mxCell>
        <mxCell id="3ziM_ePsdoDH7cdMsqEC-77" style="edgeStyle=orthogonalEdgeStyle;rounded=0;orthogonalLoop=1;jettySize=auto;html=1;exitX=0.25;exitY=1;exitDx=0;exitDy=0;entryX=0.75;entryY=0;entryDx=0;entryDy=0;" edge="1" parent="1" source="3ziM_ePsdoDH7cdMsqEC-3" target="3ziM_ePsdoDH7cdMsqEC-5">
          <mxGeometry relative="1" as="geometry" />
        </mxCell>
        <mxCell id="3ziM_ePsdoDH7cdMsqEC-87" style="edgeStyle=orthogonalEdgeStyle;rounded=0;orthogonalLoop=1;jettySize=auto;html=1;exitX=0.5;exitY=1;exitDx=0;exitDy=0;entryX=0.5;entryY=0;entryDx=0;entryDy=0;" edge="1" parent="1" source="3ziM_ePsdoDH7cdMsqEC-3" target="3ziM_ePsdoDH7cdMsqEC-83">
          <mxGeometry relative="1" as="geometry" />
        </mxCell>
        <mxCell id="3ziM_ePsdoDH7cdMsqEC-3" value="Profile Settings" style="swimlane;whiteSpace=wrap;html=1;" vertex="1" parent="1">
          <mxGeometry x="650" width="200" height="200" as="geometry" />
        </mxCell>
        <mxCell id="3ziM_ePsdoDH7cdMsqEC-54" value="Edit Bio" style="rounded=1;arcSize=9;fillColor=#F7F8F9;align=left;spacingLeft=5;strokeColor=#DEE1E6;html=1;strokeWidth=2;fontSize=12" vertex="1" parent="3ziM_ePsdoDH7cdMsqEC-3">
          <mxGeometry x="35" y="90" width="130" height="60" as="geometry" />
        </mxCell>
        <mxCell id="3ziM_ePsdoDH7cdMsqEC-55" value="" style="html=1;verticalLabelPosition=bottom;align=center;labelBackgroundColor=#ffffff;verticalAlign=top;strokeWidth=2;strokeColor=#0080F0;shadow=0;dashed=0;shape=mxgraph.ios7.icons.user;" vertex="1" parent="3ziM_ePsdoDH7cdMsqEC-3">
          <mxGeometry x="77.5" y="30" width="45" height="45" as="geometry" />
        </mxCell>
        <mxCell id="3ziM_ePsdoDH7cdMsqEC-60" value="" style="sketch=0;outlineConnect=0;fontColor=#232F3E;gradientColor=none;fillColor=#232F3D;strokeColor=none;dashed=0;verticalLabelPosition=bottom;verticalAlign=top;align=center;html=1;fontSize=12;fontStyle=0;aspect=fixed;pointerEvents=1;shape=mxgraph.aws4.gear;" vertex="1" parent="3ziM_ePsdoDH7cdMsqEC-3">
          <mxGeometry x="120" y="63" width="12" height="12" as="geometry" />
        </mxCell>
        <mxCell id="3ziM_ePsdoDH7cdMsqEC-185" value="Complete Setup" style="rounded=1;fillColor=#0057D8;align=center;strokeColor=none;html=1;whiteSpace=wrap;fontColor=#ffffff;fontSize=12;sketch=0;" vertex="1" parent="3ziM_ePsdoDH7cdMsqEC-3">
          <mxGeometry x="48.5" y="160" width="103" height="33" as="geometry" />
        </mxCell>
        <mxCell id="3ziM_ePsdoDH7cdMsqEC-88" style="edgeStyle=orthogonalEdgeStyle;rounded=0;orthogonalLoop=1;jettySize=auto;html=1;exitX=0.25;exitY=1;exitDx=0;exitDy=0;entryX=0.5;entryY=0;entryDx=0;entryDy=0;" edge="1" parent="1" source="3ziM_ePsdoDH7cdMsqEC-5" target="3ziM_ePsdoDH7cdMsqEC-6">
          <mxGeometry relative="1" as="geometry" />
        </mxCell>
        <mxCell id="3ziM_ePsdoDH7cdMsqEC-89" style="edgeStyle=orthogonalEdgeStyle;rounded=0;orthogonalLoop=1;jettySize=auto;html=1;exitX=0.5;exitY=1;exitDx=0;exitDy=0;entryX=0.5;entryY=0;entryDx=0;entryDy=0;" edge="1" parent="1" source="3ziM_ePsdoDH7cdMsqEC-5" target="3ziM_ePsdoDH7cdMsqEC-7">
          <mxGeometry relative="1" as="geometry" />
        </mxCell>
        <mxCell id="3ziM_ePsdoDH7cdMsqEC-90" style="edgeStyle=orthogonalEdgeStyle;rounded=0;orthogonalLoop=1;jettySize=auto;html=1;exitX=0.75;exitY=1;exitDx=0;exitDy=0;entryX=0.5;entryY=0;entryDx=0;entryDy=0;" edge="1" parent="1" source="3ziM_ePsdoDH7cdMsqEC-5">
          <mxGeometry relative="1" as="geometry">
            <mxPoint x="750" y="560" as="targetPoint" />
          </mxGeometry>
        </mxCell>
        <mxCell id="3ziM_ePsdoDH7cdMsqEC-140" style="edgeStyle=orthogonalEdgeStyle;rounded=0;orthogonalLoop=1;jettySize=auto;html=1;exitX=0;exitY=0.5;exitDx=0;exitDy=0;entryX=1;entryY=0.5;entryDx=0;entryDy=0;" edge="1" parent="1" source="3ziM_ePsdoDH7cdMsqEC-5" target="3ziM_ePsdoDH7cdMsqEC-31">
          <mxGeometry relative="1" as="geometry" />
        </mxCell>
        <mxCell id="3ziM_ePsdoDH7cdMsqEC-5" value="Dashboard" style="swimlane;whiteSpace=wrap;html=1;" vertex="1" parent="1">
          <mxGeometry x="323" y="280" width="205" height="200" as="geometry">
            <mxRectangle x="325" y="280" width="100" height="30" as="alternateBounds" />
          </mxGeometry>
        </mxCell>
        <mxCell id="3ziM_ePsdoDH7cdMsqEC-129" value="" style="rounded=0;whiteSpace=wrap;html=1;" vertex="1" parent="3ziM_ePsdoDH7cdMsqEC-5">
          <mxGeometry y="23" width="40" height="177" as="geometry" />
        </mxCell>
        <mxCell id="3ziM_ePsdoDH7cdMsqEC-130" value="" style="rounded=1;whiteSpace=wrap;html=1;" vertex="1" parent="3ziM_ePsdoDH7cdMsqEC-5">
          <mxGeometry x="3.75" y="30" width="32.5" height="13" as="geometry" />
        </mxCell>
        <mxCell id="3ziM_ePsdoDH7cdMsqEC-132" value="" style="rounded=1;whiteSpace=wrap;html=1;" vertex="1" parent="3ziM_ePsdoDH7cdMsqEC-5">
          <mxGeometry x="3.75" y="50" width="32.5" height="13" as="geometry" />
        </mxCell>
        <mxCell id="3ziM_ePsdoDH7cdMsqEC-133" value="" style="rounded=1;whiteSpace=wrap;html=1;" vertex="1" parent="3ziM_ePsdoDH7cdMsqEC-5">
          <mxGeometry x="3.75" y="70" width="32.5" height="13" as="geometry" />
        </mxCell>
        <mxCell id="3ziM_ePsdoDH7cdMsqEC-134" value="" style="rounded=1;whiteSpace=wrap;html=1;" vertex="1" parent="3ziM_ePsdoDH7cdMsqEC-5">
          <mxGeometry x="3.75" y="90" width="32.5" height="13" as="geometry" />
        </mxCell>
        <mxCell id="3ziM_ePsdoDH7cdMsqEC-137" value="" style="html=1;verticalLabelPosition=bottom;align=center;labelBackgroundColor=#ffffff;verticalAlign=top;strokeWidth=2;strokeColor=#0080F0;shadow=0;dashed=0;shape=mxgraph.ios7.icons.user;" vertex="1" parent="3ziM_ePsdoDH7cdMsqEC-5">
          <mxGeometry x="7.5" y="170" width="25" height="25" as="geometry" />
        </mxCell>
        <mxCell id="3ziM_ePsdoDH7cdMsqEC-138" value="" style="sketch=0;outlineConnect=0;fontColor=#232F3E;gradientColor=none;fillColor=#232F3D;strokeColor=none;dashed=0;verticalLabelPosition=bottom;verticalAlign=top;align=center;html=1;fontSize=12;fontStyle=0;aspect=fixed;pointerEvents=1;shape=mxgraph.aws4.gear;" vertex="1" parent="3ziM_ePsdoDH7cdMsqEC-5">
          <mxGeometry x="31.25" y="190" width="5" height="5" as="geometry" />
        </mxCell>
        <mxCell id="3ziM_ePsdoDH7cdMsqEC-141" value="All Content Goes Here" style="text;html=1;strokeColor=none;fillColor=none;align=center;verticalAlign=middle;whiteSpace=wrap;rounded=0;" vertex="1" parent="3ziM_ePsdoDH7cdMsqEC-5">
          <mxGeometry x="65" y="81.5" width="105" height="60" as="geometry" />
        </mxCell>
        <mxCell id="3ziM_ePsdoDH7cdMsqEC-26" style="edgeStyle=orthogonalEdgeStyle;rounded=0;orthogonalLoop=1;jettySize=auto;html=1;exitX=0.5;exitY=1;exitDx=0;exitDy=0;entryX=0.5;entryY=0;entryDx=0;entryDy=0;" edge="1" parent="1" source="3ziM_ePsdoDH7cdMsqEC-6" target="3ziM_ePsdoDH7cdMsqEC-10">
          <mxGeometry relative="1" as="geometry" />
        </mxCell>
        <mxCell id="3ziM_ePsdoDH7cdMsqEC-6" value="Find Friends" style="swimlane;whiteSpace=wrap;html=1;" vertex="1" parent="1">
          <mxGeometry y="560" width="200" height="200" as="geometry" />
        </mxCell>
        <mxCell id="3ziM_ePsdoDH7cdMsqEC-170" value="User" style="rounded=1;whiteSpace=wrap;html=1;" vertex="1" parent="3ziM_ePsdoDH7cdMsqEC-6">
          <mxGeometry x="35" y="161.5" width="80" height="20" as="geometry" />
        </mxCell>
        <mxCell id="3ziM_ePsdoDH7cdMsqEC-171" value="Add Friend" style="rounded=1;fillColor=#d5e8d4;align=center;strokeColor=#82b366;html=1;whiteSpace=wrap;fontSize=8;sketch=0;" vertex="1" parent="3ziM_ePsdoDH7cdMsqEC-6">
          <mxGeometry x="115" y="160" width="50" height="23" as="geometry" />
        </mxCell>
        <mxCell id="3ziM_ePsdoDH7cdMsqEC-172" value="" style="html=1;verticalLabelPosition=bottom;align=center;labelBackgroundColor=#ffffff;verticalAlign=top;strokeWidth=2;strokeColor=#0080F0;shadow=0;dashed=0;shape=mxgraph.ios7.icons.user;" vertex="1" parent="3ziM_ePsdoDH7cdMsqEC-6">
          <mxGeometry x="45" y="163.25" width="16.5" height="16.5" as="geometry" />
        </mxCell>
        <mxCell id="3ziM_ePsdoDH7cdMsqEC-173" value="User" style="rounded=1;whiteSpace=wrap;html=1;" vertex="1" parent="3ziM_ePsdoDH7cdMsqEC-6">
          <mxGeometry x="35" y="131.5" width="80" height="20" as="geometry" />
        </mxCell>
        <mxCell id="3ziM_ePsdoDH7cdMsqEC-174" value="Add Friend" style="rounded=1;fillColor=#d5e8d4;align=center;strokeColor=#82b366;html=1;whiteSpace=wrap;fontSize=8;sketch=0;" vertex="1" parent="3ziM_ePsdoDH7cdMsqEC-6">
          <mxGeometry x="115" y="130" width="50" height="23" as="geometry" />
        </mxCell>
        <mxCell id="3ziM_ePsdoDH7cdMsqEC-175" value="" style="html=1;verticalLabelPosition=bottom;align=center;labelBackgroundColor=#ffffff;verticalAlign=top;strokeWidth=2;strokeColor=#0080F0;shadow=0;dashed=0;shape=mxgraph.ios7.icons.user;" vertex="1" parent="3ziM_ePsdoDH7cdMsqEC-6">
          <mxGeometry x="45" y="133.25" width="16.5" height="16.5" as="geometry" />
        </mxCell>
        <mxCell id="3ziM_ePsdoDH7cdMsqEC-176" value="User" style="rounded=1;whiteSpace=wrap;html=1;" vertex="1" parent="3ziM_ePsdoDH7cdMsqEC-6">
          <mxGeometry x="35" y="101.5" width="80" height="20" as="geometry" />
        </mxCell>
        <mxCell id="3ziM_ePsdoDH7cdMsqEC-177" value="Add Friend" style="rounded=1;fillColor=#d5e8d4;align=center;strokeColor=#82b366;html=1;whiteSpace=wrap;fontSize=8;sketch=0;" vertex="1" parent="3ziM_ePsdoDH7cdMsqEC-6">
          <mxGeometry x="115" y="100" width="50" height="23" as="geometry" />
        </mxCell>
        <mxCell id="3ziM_ePsdoDH7cdMsqEC-178" value="" style="html=1;verticalLabelPosition=bottom;align=center;labelBackgroundColor=#ffffff;verticalAlign=top;strokeWidth=2;strokeColor=#0080F0;shadow=0;dashed=0;shape=mxgraph.ios7.icons.user;" vertex="1" parent="3ziM_ePsdoDH7cdMsqEC-6">
          <mxGeometry x="45" y="103.25" width="16.5" height="16.5" as="geometry" />
        </mxCell>
        <mxCell id="3ziM_ePsdoDH7cdMsqEC-179" value="User" style="rounded=1;whiteSpace=wrap;html=1;" vertex="1" parent="3ziM_ePsdoDH7cdMsqEC-6">
          <mxGeometry x="35" y="71.5" width="80" height="20" as="geometry" />
        </mxCell>
        <mxCell id="3ziM_ePsdoDH7cdMsqEC-180" value="Add Friend" style="rounded=1;fillColor=#d5e8d4;align=center;strokeColor=#82b366;html=1;whiteSpace=wrap;fontSize=8;sketch=0;" vertex="1" parent="3ziM_ePsdoDH7cdMsqEC-6">
          <mxGeometry x="115" y="70" width="50" height="23" as="geometry" />
        </mxCell>
        <mxCell id="3ziM_ePsdoDH7cdMsqEC-181" value="" style="html=1;verticalLabelPosition=bottom;align=center;labelBackgroundColor=#ffffff;verticalAlign=top;strokeWidth=2;strokeColor=#0080F0;shadow=0;dashed=0;shape=mxgraph.ios7.icons.user;" vertex="1" parent="3ziM_ePsdoDH7cdMsqEC-6">
          <mxGeometry x="45" y="73.25" width="16.5" height="16.5" as="geometry" />
        </mxCell>
        <mxCell id="3ziM_ePsdoDH7cdMsqEC-182" value="Search Users" style="rounded=1;arcSize=9;fillColor=#F7F8F9;align=left;spacingLeft=5;strokeColor=#DEE1E6;html=1;strokeWidth=2;fontSize=12" vertex="1" parent="3ziM_ePsdoDH7cdMsqEC-6">
          <mxGeometry x="35" y="40" width="105" height="20" as="geometry" />
        </mxCell>
        <mxCell id="3ziM_ePsdoDH7cdMsqEC-183" value="" style="rounded=1;align=center;html=1;whiteSpace=wrap;fontSize=12;sketch=0;" vertex="1" parent="3ziM_ePsdoDH7cdMsqEC-6">
          <mxGeometry x="140" y="38.5" width="40" height="23" as="geometry" />
        </mxCell>
        <mxCell id="3ziM_ePsdoDH7cdMsqEC-184" value="" style="shadow=0;dashed=0;html=1;strokeColor=none;fillColor=#4495D1;labelPosition=center;verticalLabelPosition=bottom;verticalAlign=top;align=center;outlineConnect=0;shape=mxgraph.veeam.magnifying_glass;pointerEvents=1;" vertex="1" parent="3ziM_ePsdoDH7cdMsqEC-6">
          <mxGeometry x="152.7" y="42.799999999999955" width="14.61" height="14.4" as="geometry" />
        </mxCell>
        <mxCell id="3ziM_ePsdoDH7cdMsqEC-27" style="edgeStyle=orthogonalEdgeStyle;rounded=0;orthogonalLoop=1;jettySize=auto;html=1;exitX=0.5;exitY=1;exitDx=0;exitDy=0;entryX=0.5;entryY=0;entryDx=0;entryDy=0;" edge="1" parent="1" source="3ziM_ePsdoDH7cdMsqEC-7" target="3ziM_ePsdoDH7cdMsqEC-11">
          <mxGeometry relative="1" as="geometry" />
        </mxCell>
        <mxCell id="3ziM_ePsdoDH7cdMsqEC-33" style="edgeStyle=orthogonalEdgeStyle;rounded=0;orthogonalLoop=1;jettySize=auto;html=1;exitX=0;exitY=0.5;exitDx=0;exitDy=0;entryX=1;entryY=0.25;entryDx=0;entryDy=0;" edge="1" parent="1" source="3ziM_ePsdoDH7cdMsqEC-7" target="3ziM_ePsdoDH7cdMsqEC-10">
          <mxGeometry relative="1" as="geometry" />
        </mxCell>
        <mxCell id="3ziM_ePsdoDH7cdMsqEC-7" value="My Conversations" style="swimlane;whiteSpace=wrap;html=1;startSize=23;" vertex="1" parent="1">
          <mxGeometry x="325" y="560" width="200" height="200" as="geometry" />
        </mxCell>
        <mxCell id="3ziM_ePsdoDH7cdMsqEC-186" value="Search Conversations" style="rounded=1;arcSize=9;fillColor=#F7F8F9;align=left;spacingLeft=5;strokeColor=#DEE1E6;html=1;strokeWidth=2;fontSize=12" vertex="1" parent="3ziM_ePsdoDH7cdMsqEC-7">
          <mxGeometry x="15" y="31.5" width="130" height="20" as="geometry" />
        </mxCell>
        <mxCell id="3ziM_ePsdoDH7cdMsqEC-187" value="" style="rounded=1;align=center;html=1;whiteSpace=wrap;fontSize=12;sketch=0;" vertex="1" parent="3ziM_ePsdoDH7cdMsqEC-7">
          <mxGeometry x="145" y="28.5" width="40" height="23" as="geometry" />
        </mxCell>
        <mxCell id="3ziM_ePsdoDH7cdMsqEC-188" value="" style="shadow=0;dashed=0;html=1;strokeColor=none;fillColor=#4495D1;labelPosition=center;verticalLabelPosition=bottom;verticalAlign=top;align=center;outlineConnect=0;shape=mxgraph.veeam.magnifying_glass;pointerEvents=1;" vertex="1" parent="3ziM_ePsdoDH7cdMsqEC-7">
          <mxGeometry x="157.7" y="32.799999999999955" width="14.61" height="14.4" as="geometry" />
        </mxCell>
        <mxCell id="3ziM_ePsdoDH7cdMsqEC-191" value="User Chat" style="rounded=1;whiteSpace=wrap;html=1;" vertex="1" parent="3ziM_ePsdoDH7cdMsqEC-7">
          <mxGeometry x="40" y="70" width="120" height="20" as="geometry" />
        </mxCell>
        <mxCell id="3ziM_ePsdoDH7cdMsqEC-192" value="" style="html=1;verticalLabelPosition=bottom;align=center;labelBackgroundColor=#ffffff;verticalAlign=top;strokeWidth=2;strokeColor=#0080F0;shadow=0;dashed=0;shape=mxgraph.ios7.icons.user;" vertex="1" parent="3ziM_ePsdoDH7cdMsqEC-7">
          <mxGeometry x="50" y="71.75" width="16.5" height="16.5" as="geometry" />
        </mxCell>
        <mxCell id="3ziM_ePsdoDH7cdMsqEC-193" value="User Chat" style="rounded=1;whiteSpace=wrap;html=1;" vertex="1" parent="3ziM_ePsdoDH7cdMsqEC-7">
          <mxGeometry x="40" y="100" width="120" height="20" as="geometry" />
        </mxCell>
        <mxCell id="3ziM_ePsdoDH7cdMsqEC-194" value="" style="html=1;verticalLabelPosition=bottom;align=center;labelBackgroundColor=#ffffff;verticalAlign=top;strokeWidth=2;strokeColor=#0080F0;shadow=0;dashed=0;shape=mxgraph.ios7.icons.user;" vertex="1" parent="3ziM_ePsdoDH7cdMsqEC-7">
          <mxGeometry x="50" y="101.75" width="16.5" height="16.5" as="geometry" />
        </mxCell>
        <mxCell id="3ziM_ePsdoDH7cdMsqEC-199" value="User Chat" style="rounded=1;whiteSpace=wrap;html=1;" vertex="1" parent="3ziM_ePsdoDH7cdMsqEC-7">
          <mxGeometry x="40" y="130" width="120" height="20" as="geometry" />
        </mxCell>
        <mxCell id="3ziM_ePsdoDH7cdMsqEC-200" value="" style="html=1;verticalLabelPosition=bottom;align=center;labelBackgroundColor=#ffffff;verticalAlign=top;strokeWidth=2;strokeColor=#0080F0;shadow=0;dashed=0;shape=mxgraph.ios7.icons.user;" vertex="1" parent="3ziM_ePsdoDH7cdMsqEC-7">
          <mxGeometry x="50" y="131.75" width="16.5" height="16.5" as="geometry" />
        </mxCell>
        <mxCell id="3ziM_ePsdoDH7cdMsqEC-196" value="" style="html=1;verticalLabelPosition=bottom;align=center;labelBackgroundColor=#ffffff;verticalAlign=top;strokeWidth=2;strokeColor=#0080F0;shadow=0;dashed=0;shape=mxgraph.ios7.icons.user;" vertex="1" parent="3ziM_ePsdoDH7cdMsqEC-7">
          <mxGeometry x="50" y="161.75" width="16.5" height="16.5" as="geometry" />
        </mxCell>
        <mxCell id="3ziM_ePsdoDH7cdMsqEC-195" value="User Chat" style="rounded=1;whiteSpace=wrap;html=1;" vertex="1" parent="3ziM_ePsdoDH7cdMsqEC-7">
          <mxGeometry x="40" y="160" width="120" height="20" as="geometry" />
        </mxCell>
        <mxCell id="3ziM_ePsdoDH7cdMsqEC-201" value="" style="html=1;verticalLabelPosition=bottom;align=center;labelBackgroundColor=#ffffff;verticalAlign=top;strokeWidth=2;strokeColor=#0080F0;shadow=0;dashed=0;shape=mxgraph.ios7.icons.user;" vertex="1" parent="3ziM_ePsdoDH7cdMsqEC-7">
          <mxGeometry x="50" y="161.75" width="16.5" height="16.5" as="geometry" />
        </mxCell>
        <mxCell id="3ziM_ePsdoDH7cdMsqEC-10" value="View User Profile&lt;br&gt;" style="swimlane;whiteSpace=wrap;html=1;" vertex="1" parent="1">
          <mxGeometry y="840" width="200" height="200" as="geometry" />
        </mxCell>
        <mxCell id="3ziM_ePsdoDH7cdMsqEC-207" value="Bio" style="rounded=1;arcSize=9;fillColor=#F7F8F9;align=left;spacingLeft=5;strokeColor=#DEE1E6;html=1;strokeWidth=2;fontSize=12" vertex="1" parent="3ziM_ePsdoDH7cdMsqEC-10">
          <mxGeometry x="35" y="110" width="130" height="60" as="geometry" />
        </mxCell>
        <mxCell id="3ziM_ePsdoDH7cdMsqEC-208" value="" style="html=1;verticalLabelPosition=bottom;align=center;labelBackgroundColor=#ffffff;verticalAlign=top;strokeWidth=2;strokeColor=#0080F0;shadow=0;dashed=0;shape=mxgraph.ios7.icons.user;" vertex="1" parent="3ziM_ePsdoDH7cdMsqEC-10">
          <mxGeometry x="77.5" y="40" width="45" height="45" as="geometry" />
        </mxCell>
        <mxCell id="3ziM_ePsdoDH7cdMsqEC-34" style="edgeStyle=orthogonalEdgeStyle;rounded=0;orthogonalLoop=1;jettySize=auto;html=1;exitX=0;exitY=0.5;exitDx=0;exitDy=0;entryX=1;entryY=0.5;entryDx=0;entryDy=0;" edge="1" parent="1" source="3ziM_ePsdoDH7cdMsqEC-11" target="3ziM_ePsdoDH7cdMsqEC-10">
          <mxGeometry relative="1" as="geometry" />
        </mxCell>
        <mxCell id="3ziM_ePsdoDH7cdMsqEC-11" value="Chat with User" style="swimlane;whiteSpace=wrap;html=1;" vertex="1" parent="1">
          <mxGeometry x="325" y="840" width="200" height="200" as="geometry" />
        </mxCell>
        <mxCell id="3ziM_ePsdoDH7cdMsqEC-220" value="Message" style="rounded=1;whiteSpace=wrap;html=1;fillColor=#ffe6cc;strokeColor=#d79b00;" vertex="1" parent="3ziM_ePsdoDH7cdMsqEC-11">
          <mxGeometry y="150" width="120" height="20" as="geometry" />
        </mxCell>
        <mxCell id="3ziM_ePsdoDH7cdMsqEC-211" value="User Chat" style="rounded=0;whiteSpace=wrap;html=1;" vertex="1" parent="3ziM_ePsdoDH7cdMsqEC-11">
          <mxGeometry y="20" width="200" height="20" as="geometry" />
        </mxCell>
        <mxCell id="3ziM_ePsdoDH7cdMsqEC-212" value="" style="html=1;verticalLabelPosition=bottom;align=center;labelBackgroundColor=#ffffff;verticalAlign=top;strokeWidth=2;strokeColor=#0080F0;shadow=0;dashed=0;shape=mxgraph.ios7.icons.user;" vertex="1" parent="3ziM_ePsdoDH7cdMsqEC-11">
          <mxGeometry x="5" y="20" width="20" height="20" as="geometry" />
        </mxCell>
        <mxCell id="3ziM_ePsdoDH7cdMsqEC-214" value="Message" style="rounded=1;whiteSpace=wrap;html=1;fillColor=#ffe6cc;strokeColor=#d79b00;" vertex="1" parent="3ziM_ePsdoDH7cdMsqEC-11">
          <mxGeometry y="60" width="120" height="20" as="geometry" />
        </mxCell>
        <mxCell id="3ziM_ePsdoDH7cdMsqEC-213" value="" style="html=1;verticalLabelPosition=bottom;align=center;labelBackgroundColor=#ffffff;verticalAlign=top;strokeWidth=2;strokeColor=#0080F0;shadow=0;dashed=0;shape=mxgraph.ios7.icons.user;" vertex="1" parent="3ziM_ePsdoDH7cdMsqEC-11">
          <mxGeometry x="5" y="60" width="20" height="20" as="geometry" />
        </mxCell>
        <mxCell id="3ziM_ePsdoDH7cdMsqEC-218" value="Message" style="rounded=1;whiteSpace=wrap;html=1;fillColor=#e1d5e7;strokeColor=#9673a6;" vertex="1" parent="3ziM_ePsdoDH7cdMsqEC-11">
          <mxGeometry x="80" y="90" width="120" height="20" as="geometry" />
        </mxCell>
        <mxCell id="3ziM_ePsdoDH7cdMsqEC-219" value="" style="html=1;verticalLabelPosition=bottom;align=center;labelBackgroundColor=#ffffff;verticalAlign=top;strokeWidth=2;strokeColor=#0080F0;shadow=0;dashed=0;shape=mxgraph.ios7.icons.user;" vertex="1" parent="3ziM_ePsdoDH7cdMsqEC-11">
          <mxGeometry x="85" y="90" width="20" height="20" as="geometry" />
        </mxCell>
        <mxCell id="3ziM_ePsdoDH7cdMsqEC-222" value="Message" style="rounded=1;whiteSpace=wrap;html=1;fillColor=#ffe6cc;strokeColor=#d79b00;" vertex="1" parent="3ziM_ePsdoDH7cdMsqEC-11">
          <mxGeometry y="120" width="120" height="20" as="geometry" />
        </mxCell>
        <mxCell id="3ziM_ePsdoDH7cdMsqEC-223" value="" style="html=1;verticalLabelPosition=bottom;align=center;labelBackgroundColor=#ffffff;verticalAlign=top;strokeWidth=2;strokeColor=#0080F0;shadow=0;dashed=0;shape=mxgraph.ios7.icons.user;" vertex="1" parent="3ziM_ePsdoDH7cdMsqEC-11">
          <mxGeometry x="5" y="120" width="20" height="20" as="geometry" />
        </mxCell>
        <mxCell id="3ziM_ePsdoDH7cdMsqEC-221" value="" style="html=1;verticalLabelPosition=bottom;align=center;labelBackgroundColor=#ffffff;verticalAlign=top;strokeWidth=2;strokeColor=#0080F0;shadow=0;dashed=0;shape=mxgraph.ios7.icons.user;" vertex="1" parent="3ziM_ePsdoDH7cdMsqEC-11">
          <mxGeometry x="5" y="150" width="20" height="20" as="geometry" />
        </mxCell>
        <mxCell id="3ziM_ePsdoDH7cdMsqEC-224" value="Type a message" style="rounded=1;arcSize=9;fillColor=#F7F8F9;align=left;spacingLeft=5;strokeColor=#DEE1E6;html=1;strokeWidth=2;fontSize=12" vertex="1" parent="3ziM_ePsdoDH7cdMsqEC-11">
          <mxGeometry y="180" width="150" height="20" as="geometry" />
        </mxCell>
        <mxCell id="3ziM_ePsdoDH7cdMsqEC-225" value="Send" style="rounded=1;fillColor=#0057D8;align=center;strokeColor=none;html=1;whiteSpace=wrap;fontColor=#ffffff;fontSize=12;sketch=0;" vertex="1" parent="3ziM_ePsdoDH7cdMsqEC-11">
          <mxGeometry x="150" y="180" width="50" height="20" as="geometry" />
        </mxCell>
        <mxCell id="3ziM_ePsdoDH7cdMsqEC-31" value="Pending Friend Requests" style="swimlane;whiteSpace=wrap;html=1;fontSize=9;" vertex="1" parent="1">
          <mxGeometry y="280" width="200" height="200" as="geometry" />
        </mxCell>
        <mxCell id="3ziM_ePsdoDH7cdMsqEC-95" value="User" style="rounded=1;whiteSpace=wrap;html=1;" vertex="1" parent="3ziM_ePsdoDH7cdMsqEC-31">
          <mxGeometry x="20" y="40" width="80" height="20" as="geometry" />
        </mxCell>
        <mxCell id="3ziM_ePsdoDH7cdMsqEC-40" value="Accept" style="rounded=1;fillColor=#d5e8d4;align=center;strokeColor=#82b366;html=1;whiteSpace=wrap;fontSize=8;sketch=0;" vertex="1" parent="3ziM_ePsdoDH7cdMsqEC-31">
          <mxGeometry x="100" y="38.5" width="40" height="23" as="geometry" />
        </mxCell>
        <mxCell id="3ziM_ePsdoDH7cdMsqEC-96" value="Reject" style="rounded=1;fillColor=#f8cecc;align=center;strokeColor=#b85450;html=1;whiteSpace=wrap;fontSize=8;sketch=0;" vertex="1" parent="3ziM_ePsdoDH7cdMsqEC-31">
          <mxGeometry x="140" y="38.5" width="40" height="23" as="geometry" />
        </mxCell>
        <mxCell id="3ziM_ePsdoDH7cdMsqEC-97" value="" style="html=1;verticalLabelPosition=bottom;align=center;labelBackgroundColor=#ffffff;verticalAlign=top;strokeWidth=2;strokeColor=#0080F0;shadow=0;dashed=0;shape=mxgraph.ios7.icons.user;" vertex="1" parent="3ziM_ePsdoDH7cdMsqEC-31">
          <mxGeometry x="30" y="41.75" width="16.5" height="16.5" as="geometry" />
        </mxCell>
        <mxCell id="3ziM_ePsdoDH7cdMsqEC-108" value="User" style="rounded=1;whiteSpace=wrap;html=1;" vertex="1" parent="3ziM_ePsdoDH7cdMsqEC-31">
          <mxGeometry x="20" y="71.5" width="80" height="20" as="geometry" />
        </mxCell>
        <mxCell id="3ziM_ePsdoDH7cdMsqEC-109" value="Accept" style="rounded=1;fillColor=#d5e8d4;align=center;strokeColor=#82b366;html=1;whiteSpace=wrap;fontSize=8;sketch=0;" vertex="1" parent="3ziM_ePsdoDH7cdMsqEC-31">
          <mxGeometry x="100" y="70" width="40" height="23" as="geometry" />
        </mxCell>
        <mxCell id="3ziM_ePsdoDH7cdMsqEC-110" value="Reject" style="rounded=1;fillColor=#f8cecc;align=center;strokeColor=#b85450;html=1;whiteSpace=wrap;fontSize=8;sketch=0;" vertex="1" parent="3ziM_ePsdoDH7cdMsqEC-31">
          <mxGeometry x="140" y="70" width="40" height="23" as="geometry" />
        </mxCell>
        <mxCell id="3ziM_ePsdoDH7cdMsqEC-111" value="" style="html=1;verticalLabelPosition=bottom;align=center;labelBackgroundColor=#ffffff;verticalAlign=top;strokeWidth=2;strokeColor=#0080F0;shadow=0;dashed=0;shape=mxgraph.ios7.icons.user;" vertex="1" parent="3ziM_ePsdoDH7cdMsqEC-31">
          <mxGeometry x="30" y="73.25" width="16.5" height="16.5" as="geometry" />
        </mxCell>
        <mxCell id="3ziM_ePsdoDH7cdMsqEC-116" value="User" style="rounded=1;whiteSpace=wrap;html=1;" vertex="1" parent="3ziM_ePsdoDH7cdMsqEC-31">
          <mxGeometry x="20" y="101.5" width="80" height="20" as="geometry" />
        </mxCell>
        <mxCell id="3ziM_ePsdoDH7cdMsqEC-117" value="Accept" style="rounded=1;fillColor=#d5e8d4;align=center;strokeColor=#82b366;html=1;whiteSpace=wrap;fontSize=8;sketch=0;" vertex="1" parent="3ziM_ePsdoDH7cdMsqEC-31">
          <mxGeometry x="100" y="100" width="40" height="23" as="geometry" />
        </mxCell>
        <mxCell id="3ziM_ePsdoDH7cdMsqEC-118" value="Reject" style="rounded=1;fillColor=#f8cecc;align=center;strokeColor=#b85450;html=1;whiteSpace=wrap;fontSize=8;sketch=0;" vertex="1" parent="3ziM_ePsdoDH7cdMsqEC-31">
          <mxGeometry x="140" y="100" width="40" height="23" as="geometry" />
        </mxCell>
        <mxCell id="3ziM_ePsdoDH7cdMsqEC-119" value="" style="html=1;verticalLabelPosition=bottom;align=center;labelBackgroundColor=#ffffff;verticalAlign=top;strokeWidth=2;strokeColor=#0080F0;shadow=0;dashed=0;shape=mxgraph.ios7.icons.user;" vertex="1" parent="3ziM_ePsdoDH7cdMsqEC-31">
          <mxGeometry x="30" y="103.25" width="16.5" height="16.5" as="geometry" />
        </mxCell>
        <mxCell id="3ziM_ePsdoDH7cdMsqEC-120" value="User" style="rounded=1;whiteSpace=wrap;html=1;" vertex="1" parent="3ziM_ePsdoDH7cdMsqEC-31">
          <mxGeometry x="20" y="131.5" width="80" height="20" as="geometry" />
        </mxCell>
        <mxCell id="3ziM_ePsdoDH7cdMsqEC-121" value="Accept" style="rounded=1;fillColor=#d5e8d4;align=center;strokeColor=#82b366;html=1;whiteSpace=wrap;fontSize=8;sketch=0;" vertex="1" parent="3ziM_ePsdoDH7cdMsqEC-31">
          <mxGeometry x="100" y="130" width="40" height="23" as="geometry" />
        </mxCell>
        <mxCell id="3ziM_ePsdoDH7cdMsqEC-122" value="Reject" style="rounded=1;fillColor=#f8cecc;align=center;strokeColor=#b85450;html=1;whiteSpace=wrap;fontSize=8;sketch=0;" vertex="1" parent="3ziM_ePsdoDH7cdMsqEC-31">
          <mxGeometry x="140" y="130" width="40" height="23" as="geometry" />
        </mxCell>
        <mxCell id="3ziM_ePsdoDH7cdMsqEC-123" value="" style="html=1;verticalLabelPosition=bottom;align=center;labelBackgroundColor=#ffffff;verticalAlign=top;strokeWidth=2;strokeColor=#0080F0;shadow=0;dashed=0;shape=mxgraph.ios7.icons.user;" vertex="1" parent="3ziM_ePsdoDH7cdMsqEC-31">
          <mxGeometry x="30" y="133.25" width="16.5" height="16.5" as="geometry" />
        </mxCell>
        <mxCell id="3ziM_ePsdoDH7cdMsqEC-124" value="User" style="rounded=1;whiteSpace=wrap;html=1;" vertex="1" parent="3ziM_ePsdoDH7cdMsqEC-31">
          <mxGeometry x="20" y="161.5" width="80" height="20" as="geometry" />
        </mxCell>
        <mxCell id="3ziM_ePsdoDH7cdMsqEC-125" value="Accept" style="rounded=1;fillColor=#d5e8d4;align=center;strokeColor=#82b366;html=1;whiteSpace=wrap;fontSize=8;sketch=0;" vertex="1" parent="3ziM_ePsdoDH7cdMsqEC-31">
          <mxGeometry x="100" y="160" width="40" height="23" as="geometry" />
        </mxCell>
        <mxCell id="3ziM_ePsdoDH7cdMsqEC-126" value="Reject" style="rounded=1;fillColor=#f8cecc;align=center;strokeColor=#b85450;html=1;whiteSpace=wrap;fontSize=8;sketch=0;" vertex="1" parent="3ziM_ePsdoDH7cdMsqEC-31">
          <mxGeometry x="140" y="160" width="40" height="23" as="geometry" />
        </mxCell>
        <mxCell id="3ziM_ePsdoDH7cdMsqEC-127" value="" style="html=1;verticalLabelPosition=bottom;align=center;labelBackgroundColor=#ffffff;verticalAlign=top;strokeWidth=2;strokeColor=#0080F0;shadow=0;dashed=0;shape=mxgraph.ios7.icons.user;" vertex="1" parent="3ziM_ePsdoDH7cdMsqEC-31">
          <mxGeometry x="30" y="163.25" width="16.5" height="16.5" as="geometry" />
        </mxCell>
        <mxCell id="3ziM_ePsdoDH7cdMsqEC-83" value="Crop Profile Image" style="swimlane;whiteSpace=wrap;html=1;" vertex="1" parent="1">
          <mxGeometry x="650" y="280" width="200" height="200" as="geometry" />
        </mxCell>
        <mxCell id="3ziM_ePsdoDH7cdMsqEC-91" value="" style="sketch=0;outlineConnect=0;fontColor=#232F3E;gradientColor=none;fillColor=#D45B07;strokeColor=none;dashed=0;verticalLabelPosition=bottom;verticalAlign=top;align=center;html=1;fontSize=12;fontStyle=0;aspect=fixed;pointerEvents=1;shape=mxgraph.aws4.container_registry_image;" vertex="1" parent="3ziM_ePsdoDH7cdMsqEC-83">
          <mxGeometry x="40" y="30" width="120" height="120" as="geometry" />
        </mxCell>
        <mxCell id="3ziM_ePsdoDH7cdMsqEC-93" value="Confirm" style="rounded=1;fillColor=#0057D8;align=center;strokeColor=none;html=1;whiteSpace=wrap;fontColor=#ffffff;fontSize=12;sketch=0;" vertex="1" parent="3ziM_ePsdoDH7cdMsqEC-83">
          <mxGeometry x="57" y="160" width="86" height="33" as="geometry" />
        </mxCell>
        <mxCell id="3ziM_ePsdoDH7cdMsqEC-202" value="Profile Settings" style="swimlane;whiteSpace=wrap;html=1;" vertex="1" parent="1">
          <mxGeometry x="650" y="560" width="200" height="200" as="geometry" />
        </mxCell>
        <mxCell id="3ziM_ePsdoDH7cdMsqEC-203" value="Edit Bio" style="rounded=1;arcSize=9;fillColor=#F7F8F9;align=left;spacingLeft=5;strokeColor=#DEE1E6;html=1;strokeWidth=2;fontSize=12" vertex="1" parent="3ziM_ePsdoDH7cdMsqEC-202">
          <mxGeometry x="35" y="90" width="130" height="60" as="geometry" />
        </mxCell>
        <mxCell id="3ziM_ePsdoDH7cdMsqEC-204" value="" style="html=1;verticalLabelPosition=bottom;align=center;labelBackgroundColor=#ffffff;verticalAlign=top;strokeWidth=2;strokeColor=#0080F0;shadow=0;dashed=0;shape=mxgraph.ios7.icons.user;" vertex="1" parent="3ziM_ePsdoDH7cdMsqEC-202">
          <mxGeometry x="77.5" y="30" width="45" height="45" as="geometry" />
        </mxCell>
        <mxCell id="3ziM_ePsdoDH7cdMsqEC-205" value="" style="sketch=0;outlineConnect=0;fontColor=#232F3E;gradientColor=none;fillColor=#232F3D;strokeColor=none;dashed=0;verticalLabelPosition=bottom;verticalAlign=top;align=center;html=1;fontSize=12;fontStyle=0;aspect=fixed;pointerEvents=1;shape=mxgraph.aws4.gear;" vertex="1" parent="3ziM_ePsdoDH7cdMsqEC-202">
          <mxGeometry x="120" y="63" width="12" height="12" as="geometry" />
        </mxCell>
        <mxCell id="3ziM_ePsdoDH7cdMsqEC-206" value="Confirm Changes" style="rounded=1;fillColor=#0057D8;align=center;strokeColor=none;html=1;whiteSpace=wrap;fontColor=#ffffff;fontSize=12;sketch=0;" vertex="1" parent="3ziM_ePsdoDH7cdMsqEC-202">
          <mxGeometry x="48.5" y="160" width="103" height="33" as="geometry" />
        </mxCell>
      </root>
    </mxGraphModel>
  </diagram>
</mxfile>
